# xmcd CD database file
#
# Track frame offsets:
#	750
#	16250
#	36622
#	55735
#	76332
#	93905
#	112842
#	130842
#	143957
#	162107
#	181337
#	198367
#	213642
#	227840
#	256877
#
# Disc length: 3433 seconds
#
# Revision: 2
# Processed by: cddbd v1.5.1PL0 Copyright (c) Steve Scherf et al.
# Submitted via: CDex 1.51
#
DISCID=c60d5f0f
DTITLE=joe - better days
DYEAR=2001
DGENRE=R&B
TTITLE0=Let's stay home tonight
TTITLE1=Better days
TTITLE2=What if a woman
TTITLE3=Alone
TTITLE4=Isn't this the world
TTITLE5=Ghetto child (featuring Shaggy)
TTITLE6=I like sexy girls
TTITLE7=Here she comes
TTITLE8=Lover's prayer
TTITLE9=Changed man
TTITLE10=I understand
TTITLE11=She used to love me
TTITLE12=World of girls
TTITLE13=Let's stay home tonight remix (featuring petey pablo)
TTITLE14=DATA
EXTD=YEAR: 2001
EXTT0=
EXTT1=
EXTT2=
EXTT3=
EXTT4=
EXTT5=
EXTT6=
EXTT7=
EXTT8=
EXTT9=
EXTT10=
EXTT11=
EXTT12=
EXTT13=
EXTT14=
PLAYORDER=
